<svg width="540" height="540" viewBox="0 0 540 540" fill="none" xmlns="http://www.w3.org/2000/svg">
<rect width="540" height="540" fill="white"/>
<path d="M405.333 168.5V236.167M405.333 236.167V303.833M405.333 236.167H473M405.333 236.167H337.667M286.917 143.125C286.917 163.315 278.896 182.677 264.62 196.953C250.344 211.23 230.981 219.25 210.792 219.25C190.602 219.25 171.239 211.23 156.963 196.953C142.687 182.677 134.667 163.315 134.667 143.125C134.667 122.935 142.687 103.573 156.963 89.2965C171.239 75.0203 190.602 67 210.792 67C230.981 67 250.344 75.0203 264.62 89.2965C278.896 103.573 286.917 122.935 286.917 143.125ZM67 433.189V430.708C67 392.572 82.1494 355.998 109.116 329.032C136.082 302.066 172.656 286.916 210.792 286.916C248.928 286.916 285.502 302.066 312.468 329.032C339.434 355.998 354.583 392.572 354.583 430.708V433.167C311.175 459.311 261.443 473.085 210.769 473C158.192 473 108.998 458.451 67 433.167V433.189Z" stroke="#09090B" stroke-width="23" stroke-linecap="round" stroke-linejoin="round"/>
</svg>
