<svg width="540" height="540" viewBox="0 0 540 540" fill="none" xmlns="http://www.w3.org/2000/svg">
<rect width="540" height="540" fill="none"/>
<path d="M139.333 46V102M400.667 46V102M46 438V158C46 143.148 51.9 128.904 62.402 118.402C72.9041 107.9 87.1479 102 102 102H438C452.852 102 467.096 107.9 477.598 118.402C488.1 128.904 494 143.148 494 158V438M46 438C46 452.852 51.9 467.096 62.402 477.598C72.9041 488.1 87.1479 494 102 494H438C452.852 494 467.096 488.1 477.598 477.598C488.1 467.096 494 452.852 494 438M46 438V251.333C46 236.481 51.9 222.237 62.402 211.735C72.9041 201.233 87.1479 195.333 102 195.333H438C452.852 195.333 467.096 201.233 477.598 211.735C488.1 222.237 494 236.481 494 251.333V438M270 288.667H270.199V288.866H270V288.667ZM270 344.667H270.199V344.866H270V344.667ZM270 400.667H270.199V400.866H270V400.667ZM214 344.667H214.199V344.866H214V344.667ZM214 400.667H214.199V400.866H214V400.667ZM158 344.667H158.199V344.866H158V344.667ZM158 400.667H158.199V400.866H158V400.667ZM326 288.667H326.199V288.866H326V288.667ZM326 344.667H326.199V344.866H326V344.667ZM326 400.667H326.199V400.866H326V400.667ZM382 288.667H382.199V288.866H382V288.667ZM382 344.667H382.199V344.866H382V344.667Z" stroke="#09090B" stroke-width="23" stroke-linecap="round" stroke-linejoin="round"/>
</svg>
