<svg width="540" height="540" viewBox="0 0 540 540" fill="none" xmlns="http://www.w3.org/2000/svg">
<rect width="540" height="540" fill="none"/>
<path d="M385.169 342.174C395.82 334.896 408.313 330.784 421.203 330.314C434.093 329.844 446.852 333.035 458.005 339.518C469.157 346.001 478.248 355.51 484.224 366.947C490.201 378.383 492.819 391.279 491.776 404.142C464.457 413.696 435.439 417.414 406.595 415.055C406.506 389.234 399.075 363.949 385.169 342.197C372.825 322.827 355.798 306.884 335.663 295.846C315.528 284.807 292.936 279.028 269.977 279.043C247.021 279.032 224.433 284.812 204.303 295.851C184.172 306.89 167.149 322.83 154.807 342.197M406.572 415.033L406.595 415.739C406.595 420.865 406.322 425.923 405.752 430.912C364.434 454.632 317.613 467.076 269.977 467C220.566 467 174.184 453.877 134.201 430.912C133.615 425.639 133.334 420.338 133.358 415.033M133.358 415.033C104.523 417.476 75.5211 413.772 48.2223 404.165C47.1829 391.306 49.8024 378.414 55.778 366.982C61.7535 355.549 70.8411 346.042 81.9899 339.56C93.1387 333.078 105.893 329.886 118.779 330.353C131.665 330.819 144.156 334.925 154.807 342.197M133.358 415.033C133.44 389.214 140.909 363.951 154.807 342.197M338.286 142.348C338.286 160.475 331.089 177.859 318.278 190.677C305.468 203.495 288.093 210.696 269.977 210.696C251.86 210.696 234.485 203.495 221.675 190.677C208.864 177.859 201.667 160.475 201.667 142.348C201.667 124.221 208.864 106.836 221.675 94.0186C234.485 81.2009 251.86 74 269.977 74C288.093 74 305.468 81.2009 318.278 94.0186C331.089 106.836 338.286 124.221 338.286 142.348ZM474.904 210.696C474.904 217.427 473.579 224.093 471.004 230.312C468.43 236.531 464.656 242.182 459.899 246.942C455.141 251.702 449.493 255.478 443.278 258.054C437.062 260.63 430.4 261.956 423.672 261.956C416.944 261.956 410.282 260.63 404.067 258.054C397.851 255.478 392.203 251.702 387.446 246.942C382.688 242.182 378.915 236.531 376.34 230.312C373.765 224.093 372.44 217.427 372.44 210.696C372.44 197.1 377.838 184.062 387.446 174.449C397.054 164.835 410.085 159.435 423.672 159.435C437.26 159.435 450.291 164.835 459.899 174.449C469.506 184.062 474.904 197.1 474.904 210.696ZM167.513 210.696C167.513 217.427 166.188 224.093 163.613 230.312C161.038 236.531 157.265 242.182 152.507 246.942C147.75 251.702 142.102 255.478 135.887 258.054C129.671 260.63 123.009 261.956 116.281 261.956C109.553 261.956 102.891 260.63 96.6754 258.054C90.4597 255.478 84.8119 251.702 80.0546 246.942C75.2973 242.182 71.5236 236.531 68.9489 230.312C66.3743 224.093 65.0492 217.427 65.0492 210.696C65.0492 197.1 70.4468 184.062 80.0546 174.449C89.6625 164.835 102.693 159.435 116.281 159.435C129.869 159.435 142.9 164.835 152.507 174.449C162.115 184.062 167.513 197.1 167.513 210.696Z" stroke="#F9B521" stroke-width="23" stroke-linecap="round" stroke-linejoin="round"/>
</svg>
