<svg width="540" height="540" viewBox="0 0 540 540" fill="none" xmlns="http://www.w3.org/2000/svg">
<rect width="540" height="540" fill="none"/>
<path d="M420.892 439.618C403.268 416.284 380.467 397.361 354.285 384.34C328.102 371.318 299.254 364.554 270.013 364.581C240.771 364.554 211.923 371.318 185.741 384.34C159.558 397.361 136.757 416.284 119.133 439.618M420.892 439.618C455.282 409.028 479.536 368.706 490.485 324C501.433 279.294 498.532 232.316 482.168 189.296C465.804 146.276 436.75 109.247 398.858 83.1192C360.966 56.9916 316.026 43 270 43C223.974 43 179.034 56.9916 141.142 83.1192C103.25 109.247 74.1956 146.276 57.8316 189.296C41.4675 232.316 38.5673 279.294 49.5154 324C60.4635 368.706 84.7428 409.028 119.133 439.618M420.892 439.618C379.377 476.65 325.643 497.079 270.013 497C214.373 497.085 160.655 476.655 119.133 439.618M345.679 213.245C345.679 233.314 337.707 252.56 323.517 266.751C309.327 280.941 290.081 288.913 270.013 288.913C249.945 288.913 230.698 280.941 216.508 266.751C202.318 252.56 194.346 233.314 194.346 213.245C194.346 193.177 202.318 173.93 216.508 159.74C230.698 145.55 249.945 137.577 270.013 137.577C290.081 137.577 309.327 145.55 323.517 159.74C337.707 173.93 345.679 193.177 345.679 213.245Z" stroke="#F9B521" stroke-width="23" stroke-linecap="round" stroke-linejoin="round"/>
</svg>
